<?xml version="1.0" encoding="utf-8"?>
<!-- Generator: Adobe Illustrator 21.0.2, SVG Export Plug-In . SVG Version: 6.00 Build 0)  -->
<svg version="1.1" id="Layer_1" xmlns="http://www.w3.org/2000/svg" xmlns:xlink="http://www.w3.org/1999/xlink" x="0px" y="0px"
	 viewBox="0 0 30 10" style="enable-background:new 0 0 30 10;" xml:space="preserve">
<g>
	<path d="M6.5,2.6c0,1-0.5,1.6-1.4,1.8C4.8,4.5,4.2,4.5,3.3,4.5H2.8v3.3H2V0.7h1.4c0.8,0,1.4,0,1.7,0.1c0.4,0.1,0.8,0.3,1,0.6
		C6.4,1.7,6.5,2.1,6.5,2.6z M5.8,2.6c0-0.2-0.1-0.5-0.2-0.7C5.5,1.7,5.3,1.6,5.1,1.5C4.9,1.4,4.5,1.4,4,1.4H2.8v2.4l1.2,0
		c0.8,0,1.4-0.2,1.6-0.6C5.7,3.1,5.8,2.8,5.8,2.6z"/>
	<path d="M8.3,7.9H7.7V1.1h0.6V7.9z"/>
	<path d="M15,7.9h-0.7V7C13.8,7.7,13,8,12.2,8c-0.8,0-1.4-0.3-1.9-0.8C9.7,6.6,9.5,6,9.5,5.2c0-0.8,0.3-1.4,0.8-2
		c0.5-0.5,1.2-0.8,1.9-0.8c0.9,0,1.6,0.4,2.1,1.1v-1H15V7.9z M14.4,5.2c0-0.6-0.2-1.1-0.6-1.5c-0.4-0.4-0.9-0.6-1.5-0.6
		c-0.8,0-1.4,0.4-1.8,1.1c-0.2,0.3-0.3,0.7-0.3,1.1c0,0.4,0.1,0.7,0.3,1.1c0.2,0.3,0.5,0.6,0.8,0.8c0.3,0.2,0.7,0.3,1,0.3
		c0.4,0,0.7-0.1,1.1-0.3c0.3-0.2,0.6-0.4,0.8-0.8C14.3,6,14.4,5.6,14.4,5.2z"/>
	<path d="M21,2.5l-3.2,7.3h-0.7l1-2.4L16,2.5h0.7l1.8,4.1l1.8-4.1H21z"/>
	<path d="M25.4,2.5l0-1.9H29v0.7h-2.9v2.2H29v0.7h-2.9v3.5h-0.7l0-2.2 M25.4,5V3.1"/>
</g>
</svg>
