<?xml version="1.0" encoding="utf-8"?>
<!-- Generator: Adobe Illustrator 21.0.2, SVG Export Plug-In . SVG Version: 6.00 Build 0)  -->
<svg version="1.1" id="Layer_1" xmlns="http://www.w3.org/2000/svg" xmlns:xlink="http://www.w3.org/1999/xlink" x="0px" y="0px"
	 viewBox="0 0 40 40" style="enable-background:new 0 0 40 40;" xml:space="preserve">
<style type="text/css">
	.st0{fill:#8176F4;}
</style>
<circle class="st0" cx="20" cy="20.5" r="15"/>
<path d="M17.6,12.7v6.4 M17.6,21.1v10.1h-2l0-6.3l-3.9-0.1l0-1.9h3.9v-5.3h-3.9v-1.8h3.9l0-5.3"/>
<path d="M28.4,16.1c0,2.8-1.4,4.5-4.1,5.2c-0.9,0.2-2.7,0.3-5.2,0.3h-1.5v9.6h-2V10.6h4.1c2.3,0,3.9,0.1,4.8,0.3
	c1.2,0.3,2.2,0.9,2.9,1.8C28,13.7,28.4,14.8,28.4,16.1z M26.3,16.1c0-0.7-0.2-1.3-0.6-1.9c-0.4-0.6-0.9-1-1.5-1.2
	c-0.6-0.2-1.6-0.4-3-0.4h-3.6v7l3.5,0c2.4,0,3.9-0.5,4.6-1.6C26.1,17.5,26.3,16.8,26.3,16.1z"/>
</svg>
